<svg width="830.1275146484375px" height="134.24000549316406px" xmlns="http://www.w3.org/2000/svg" viewBox="-165.06375732421873 7.879997253417969 830.1275146484375 134.24000549316406" style="background: rgba(0, 0, 0, 0);" preserveAspectRatio="xMidYMid"><defs><filter id="editing-metal-beveled"><feGaussianBlur stdDeviation="4" in="SourceAlpha" result="blur"></feGaussianBlur><feSpecularLighting surfaceScale="5" specularConstant="0.8" specularExponent="7.5" lighting-color="#fff" in="blur" result="specular"><fePointLight x="-250" y="-50" z="300"></fePointLight></feSpecularLighting><feComposite operator="in" in="specular" in2="SourceAlpha" result="comp"></feComposite><feComposite in="SourceGraphic" in2="comp" operator="arithmetic" k1="0" k2="1" k3="1" k4="0"></feComposite></filter></defs><g filter="url(#editing-metal-beveled)"><g transform="translate(-51.59498119354248, 106.90500068664551)"><path d="M9.06 0L9.06-44.41L23.72-44.41L23.72-44.41Q24.75-44.41 25.42-44.39L25.42-44.39L25.42-44.39Q26.09-44.38 27.38-44.27L27.38-44.27L27.38-44.27Q28.66-44.16 29.56-43.95L29.56-43.95L29.56-43.95Q30.47-43.75 31.70-43.33L31.70-43.33L31.70-43.33Q32.94-42.91 33.81-42.34L33.81-42.34L33.81-42.34Q34.69-41.78 35.64-40.86L35.64-40.86L35.64-40.86Q36.59-39.94 37.17-38.81L37.17-38.81L37.17-38.81Q37.75-37.69 38.13-36.09L38.13-36.09L38.13-36.09Q38.50-34.50 38.50-32.59L38.50-32.59L38.50-32.59Q38.50-29.84 37.88-27.66L37.88-27.66L37.88-27.66Q37.25-25.47 36.27-24L36.27-24L36.27-24Q35.28-22.53 33.72-21.47L33.72-21.47L33.72-21.47Q32.16-20.41 30.63-19.83L30.63-19.83L30.63-19.83Q29.09-19.25 27.02-18.92L27.02-18.92L27.02-18.92Q24.94-18.59 23.30-18.50L23.30-18.50L23.30-18.50Q21.66-18.41 19.50-18.41L19.50-18.41L19.50-18.41Q17.38-18.41 14.38-18.63L14.38-18.63L14.38 0L9.06 0ZM14.38-39.72L14.38-23.31L14.38-23.31Q17.38-23.06 20.06-23.06L20.06-23.06L20.06-23.06Q21.59-23.06 22.63-23.09L22.63-23.09L22.63-23.09Q23.66-23.13 25.16-23.31L25.16-23.31L25.16-23.31Q26.66-23.50 27.66-23.83L27.66-23.83L27.66-23.83Q28.66-24.16 29.78-24.81L29.78-24.81L29.78-24.81Q30.91-25.47 31.58-26.36L31.58-26.36L31.58-26.36Q32.25-27.25 32.69-28.61L32.69-28.61L32.69-28.61Q33.13-29.97 33.13-31.72L33.13-31.72L33.13-31.72Q33.13-33.53 32.66-34.92L32.66-34.92L32.66-34.92Q32.19-36.31 31.30-37.16L31.30-37.16L31.30-37.16Q30.41-38 29.42-38.55L29.42-38.55L29.42-38.55Q28.44-39.09 27.05-39.33L27.05-39.33L27.05-39.33Q25.66-39.56 24.61-39.64L24.61-39.64L24.61-39.64Q23.56-39.72 22.13-39.72L22.13-39.72L14.38-39.72ZM51.06-30.88L52.03-28.56L52.03-28.56Q55.94-31.47 60.66-31.47L60.66-31.47L60.66-31.47Q63.91-31.47 66.56-30.25L66.56-30.25L65-26.16L65-26.16Q62.56-27.09 59.94-27.09L59.94-27.09L59.94-27.09Q56.03-27.09 52.59-24.94L52.59-24.94L52.59 0L47.47 0L47.47-30.88L51.06-30.88ZM85.78-31.47L85.78-31.47L85.78-31.47Q88.03-31.47 89.83-30.92L89.83-30.92L89.83-30.92Q91.63-30.38 92.81-29.53L92.81-29.53L92.81-29.53Q94-28.69 94.86-27.33L94.86-27.33L94.86-27.33Q95.72-25.97 96.17-24.70L96.17-24.70L96.17-24.70Q96.63-23.44 96.88-21.66L96.88-21.66L96.88-21.66Q97.13-19.88 97.19-18.56L97.19-18.56L97.19-18.56Q97.25-17.25 97.25-15.47L97.25-15.47L97.25-13.03L76.03-13.03L76.03-13.03Q76.03-11.34 76.80-9.67L76.80-9.67L76.80-9.67Q77.56-8 78.95-6.61L78.95-6.61L78.95-6.61Q80.34-5.22 82.61-4.34L82.61-4.34L82.61-4.34Q84.88-3.47 87.63-3.47L87.63-3.47L87.63-3.47Q90.88-3.47 94.66-4.59L94.66-4.59L95.56-1.09L95.56-1.09Q90.53 0.63 85.69 0.63L85.69 0.63L85.69 0.63Q82.28 0.63 79.64-0.28L79.64-0.28L79.64-0.28Q77-1.19 75.39-2.64L75.39-2.64L75.39-2.64Q73.78-4.09 72.75-6.13L72.75-6.13L72.75-6.13Q71.72-8.16 71.33-10.17L71.33-10.17L71.33-10.17Q70.94-12.19 70.94-14.44L70.94-14.44L70.94-14.44Q70.94-17.91 71.78-20.78L71.78-20.78L71.78-20.78Q72.63-23.66 74.06-25.61L74.06-25.61L74.06-25.61Q75.50-27.56 77.42-28.91L77.42-28.91L77.42-28.91Q79.34-30.25 81.45-30.86L81.45-30.86L81.45-30.86Q83.56-31.47 85.78-31.47ZM84.69-27.03L84.69-27.03L84.69-27.03Q81.94-27.03 79.95-25.52L79.95-25.52L79.95-25.52Q77.97-24 77.06-21.75L77.06-21.75L77.06-21.75Q76.16-19.50 76.16-16.91L76.16-16.91L92.28-16.91L92.28-16.91Q92.28-27.03 84.69-27.03ZM105.38-14.72L105.38-14.72L105.38-14.72Q105.38-18.38 106.25-21.30L106.25-21.30L106.25-21.30Q107.13-24.22 108.58-26.08L108.58-26.08L108.58-26.08Q110.03-27.94 112-29.17L112-29.17L112-29.17Q113.97-30.41 116.03-30.92L116.03-30.92L116.03-30.92Q118.09-31.44 120.34-31.44L120.34-31.44L120.34-31.44Q124.78-31.44 129-29.59L129-29.59L127.75-25.84L127.75-25.84Q124.28-27.03 120.97-27.03L120.97-27.03L120.97-27.03Q119.34-27.03 117.91-26.73L117.91-26.73L117.91-26.73Q116.47-26.44 115.05-25.66L115.05-25.66L115.05-25.66Q113.63-24.88 112.61-23.64L112.61-23.64L112.61-23.64Q111.59-22.41 110.97-20.41L110.97-20.41L110.97-20.41Q110.34-18.41 110.34-15.81L110.34-15.81L110.34-15.81Q110.34-12.97 111-10.80L111-10.80L111-10.80Q111.66-8.63 112.72-7.28L112.72-7.28L112.72-7.28Q113.78-5.94 115.27-5.09L115.27-5.09L115.27-5.09Q116.75-4.25 118.27-3.92L118.27-3.92L118.27-3.92Q119.78-3.59 121.53-3.59L121.53-3.59L121.53-3.59Q124.47-3.59 127.41-4.63L127.41-4.63L128.66-1.09L128.66-1.09Q124.22 0.63 119.75 0.63L119.75 0.63L119.75 0.63Q117.69 0.63 115.80 0.22L115.80 0.22L115.80 0.22Q113.91-0.19 111.95-1.27L111.95-1.27L111.95-1.27Q110-2.34 108.58-4L108.58-4L108.58-4Q107.16-5.66 106.27-8.42L106.27-8.42L106.27-8.42Q105.38-11.19 105.38-14.72ZM137.75-38.50L137.75-44.41L143.81-44.41L143.81-38.50L137.75-38.50ZM138.22 0L138.22-30.88L143.34-30.88L143.34 0L138.22 0ZM167.41-31.47L167.41-31.47L167.41-31.47Q168.06-31.47 168.64-31.45L168.64-31.45L168.64-31.45Q169.22-31.44 169.77-31.38L169.77-31.38L169.77-31.38Q170.31-31.31 170.70-31.28L170.70-31.28L170.70-31.28Q171.09-31.25 171.61-31.16L171.61-31.16L171.61-31.16Q172.13-31.06 172.36-31.02L172.36-31.02L172.36-31.02Q172.59-30.97 173.14-30.83L173.14-30.83L173.14-30.83Q173.69-30.69 173.81-30.66L173.81-30.66L173.81-30.66Q173.94-30.63 174.55-30.44L174.55-30.44L174.55-30.44Q175.16-30.25 175.25-30.22L175.25-30.22L173.94-26.31L173.94-26.31Q169.75-27.47 166.56-27.47L166.56-27.47L166.56-27.47Q164.72-27.47 163.30-27.09L163.30-27.09L163.30-27.09Q161.88-26.72 161.11-26.19L161.11-26.19L161.11-26.19Q160.34-25.66 159.86-24.95L159.86-24.95L159.86-24.95Q159.38-24.25 159.23-23.72L159.23-23.72L159.23-23.72Q159.09-23.19 159.09-22.69L159.09-22.69L159.09-22.69Q159.09-21.41 160.42-20.41L160.42-20.41L160.42-20.41Q161.75-19.41 163.73-18.78L163.73-18.78L163.73-18.78Q165.72-18.16 168.03-17.30L168.03-17.30L168.03-17.30Q170.34-16.44 172.33-15.48L172.33-15.48L172.33-15.48Q174.31-14.53 175.64-12.81L175.64-12.81L175.64-12.81Q176.97-11.09 176.97-8.84L176.97-8.84L176.97-8.84Q176.97-7.56 176.64-6.36L176.64-6.36L176.64-6.36Q176.31-5.16 175.39-3.84L175.39-3.84L175.39-3.84Q174.47-2.53 173.02-1.58L173.02-1.58L173.02-1.58Q171.56-0.63 169.13 0L169.13 0L169.13 0Q166.69 0.63 163.53 0.63L163.53 0.63L163.53 0.63Q158.75 0.63 153.03-1.72L153.03-1.72L154.47-5.59L154.47-5.59Q157.69-4.41 159.73-3.91L159.73-3.91L159.73-3.91Q161.78-3.41 163.75-3.41L163.75-3.41L163.75-3.41Q171.38-3.41 171.38-8.25L171.38-8.25L171.38-8.25Q171.38-9.31 170.63-10.13L170.63-10.13L170.63-10.13Q169.88-10.94 168.63-11.45L168.63-11.45L168.63-11.45Q167.38-11.97 165.80-12.52L165.80-12.52L165.80-12.52Q164.22-13.06 162.58-13.53L162.58-13.53L162.58-13.53Q160.94-14 159.36-14.77L159.36-14.77L159.36-14.77Q157.78-15.53 156.53-16.45L156.53-16.45L156.53-16.45Q155.28-17.38 154.53-18.84L154.53-18.84L154.53-18.84Q153.78-20.31 153.78-22.16L153.78-22.16L153.78-22.16Q153.78-23.28 154.14-24.45L154.14-24.45L154.14-24.45Q154.50-25.63 155.48-26.92L155.48-26.92L155.48-26.92Q156.47-28.22 157.94-29.20L157.94-29.20L157.94-29.20Q159.41-30.19 161.86-30.83L161.86-30.83L161.86-30.83Q164.31-31.47 167.41-31.47ZM185.88-38.50L185.88-44.41L191.94-44.41L191.94-38.50L185.88-38.50ZM186.34 0L186.34-30.88L191.47-30.88L191.47 0L186.34 0ZM216.19-31.47L216.19-31.47L216.19-31.47Q222.59-31.47 226.73-27.38L226.73-27.38L226.73-27.38Q230.88-23.28 230.88-16.06L230.88-16.06L230.88-16.06Q230.88-8.41 226.64-3.89L226.64-3.89L226.64-3.89Q222.41 0.63 215.69 0.63L215.69 0.63L215.69 0.63Q209.28 0.63 205.22-3.61L205.22-3.61L205.22-3.61Q201.16-7.84 201.16-15.09L201.16-15.09L201.16-15.09Q201.16-22.56 205.30-27.02L205.30-27.02L205.30-27.02Q209.44-31.47 216.19-31.47ZM215.75-27.09L215.75-27.09L215.75-27.09Q211.91-27.09 209.03-24.13L209.03-24.13L209.03-24.13Q206.16-21.16 206.16-15.97L206.16-15.97L206.16-15.97Q206.16-10.81 208.97-7.28L208.97-7.28L208.97-7.28Q211.78-3.75 216.25-3.75L216.25-3.75L216.25-3.75Q220.38-3.75 223.13-6.88L223.13-6.88L223.13-6.88Q225.88-10 225.88-15.03L225.88-15.03L225.88-15.03Q225.88-17.91 224.98-20.25L224.98-20.25L224.98-20.25Q224.09-22.59 222.64-24.06L222.64-24.06L222.64-24.06Q221.19-25.53 219.41-26.31L219.41-26.31L219.41-26.31Q217.63-27.09 215.75-27.09ZM240.56 0L240.56-30.88L244.16-30.88L245.28-28.25L245.28-28.25Q251.25-31.50 256.16-31.50L256.16-31.50L256.16-31.50Q258.69-31.50 260.56-30.70L260.56-30.70L260.56-30.70Q262.44-29.91 263.47-28.70L263.47-28.70L263.47-28.70Q264.50-27.50 265.11-25.67L265.11-25.67L265.11-25.67Q265.72-23.84 265.89-22.19L265.89-22.19L265.89-22.19Q266.06-20.53 266.06-18.41L266.06-18.41L266.06 0L260.94 0L260.94-18.75L260.94-18.75Q260.94-26.88 253.94-26.88L253.94-26.88L253.94-26.88Q250.31-26.88 245.69-24.47L245.69-24.47L245.69 0L240.56 0ZM298.25 0L298.25-44.41L305.75-44.41L320-17.47L334.47-44.41L341.50-44.41L341.50 0L336.19 0L336.19-36.78L322.53-12.72L317.22-12.72L303.56-36.78L303.56 0L298.25 0ZM363.91-31.47L363.91-31.47L363.91-31.47Q367.34-31.47 369.73-30.67L369.73-30.67L369.73-30.67Q372.13-29.88 373.42-28.34L373.42-28.34L373.42-28.34Q374.72-26.81 375.28-24.94L375.28-24.94L375.28-24.94Q375.84-23.06 375.84-20.63L375.84-20.63L375.84 0L372.22 0L371.03-2.81L371.03-2.81Q367.25 0.63 362.34 0.63L362.34 0.63L362.34 0.63Q357.97 0.63 354.94-2.02L354.94-2.02L354.94-2.02Q351.91-4.66 351.91-8.19L351.91-8.19L351.91-8.19Q351.91-10.06 352.59-11.56L352.59-11.56L352.59-11.56Q353.28-13.06 354.58-14.06L354.58-14.06L354.58-14.06Q355.88-15.06 357.53-15.77L357.53-15.77L357.53-15.77Q359.19-16.47 361.39-16.84L361.39-16.84L361.39-16.84Q363.59-17.22 365.81-17.38L365.81-17.38L365.81-17.38Q368.03-17.53 370.69-17.53L370.69-17.53L370.69-19.97L370.69-19.97Q370.69-21.03 370.61-21.81L370.61-21.81L370.61-21.81Q370.53-22.59 370.09-23.69L370.09-23.69L370.09-23.69Q369.66-24.78 368.91-25.48L368.91-25.48L368.91-25.48Q368.16-26.19 366.66-26.70L366.66-26.70L366.66-26.70Q365.16-27.22 363.09-27.22L363.09-27.22L363.09-27.22Q359.91-27.22 354.84-25.81L354.84-25.81L353.88-29.56L353.88-29.56Q359-31.47 363.91-31.47ZM370.69-6.56L370.69-13.66L368.78-13.66L368.78-13.66Q367-13.66 365.69-13.59L365.69-13.59L365.69-13.59Q364.38-13.53 362.61-13.23L362.61-13.23L362.61-13.23Q360.84-12.94 359.72-12.41L359.72-12.41L359.72-12.41Q358.59-11.88 357.80-10.86L357.80-10.86L357.80-10.86Q357-9.84 357-8.44L357-8.44L357-8.44Q357-6.47 358.98-4.94L358.98-4.94L358.98-4.94Q360.97-3.41 363.72-3.41L363.72-3.41L363.72-3.41Q367.75-3.41 370.69-6.56L370.69-6.56ZM385.53-14.72L385.53-14.72L385.53-14.72Q385.53-18.38 386.41-21.30L386.41-21.30L386.41-21.30Q387.28-24.22 388.73-26.08L388.73-26.08L388.73-26.08Q390.19-27.94 392.16-29.17L392.16-29.17L392.16-29.17Q394.13-30.41 396.19-30.92L396.19-30.92L396.19-30.92Q398.25-31.44 400.50-31.44L400.50-31.44L400.50-31.44Q404.94-31.44 409.16-29.59L409.16-29.59L407.91-25.84L407.91-25.84Q404.44-27.03 401.13-27.03L401.13-27.03L401.13-27.03Q399.50-27.03 398.06-26.73L398.06-26.73L398.06-26.73Q396.63-26.44 395.20-25.66L395.20-25.66L395.20-25.66Q393.78-24.88 392.77-23.64L392.77-23.64L392.77-23.64Q391.75-22.41 391.13-20.41L391.13-20.41L391.13-20.41Q390.50-18.41 390.50-15.81L390.50-15.81L390.50-15.81Q390.50-12.97 391.16-10.80L391.16-10.80L391.16-10.80Q391.81-8.63 392.88-7.28L392.88-7.28L392.88-7.28Q393.94-5.94 395.42-5.09L395.42-5.09L395.42-5.09Q396.91-4.25 398.42-3.92L398.42-3.92L398.42-3.92Q399.94-3.59 401.69-3.59L401.69-3.59L401.69-3.59Q404.63-3.59 407.56-4.63L407.56-4.63L408.81-1.09L408.81-1.09Q404.38 0.63 399.91 0.63L399.91 0.63L399.91 0.63Q397.84 0.63 395.95 0.22L395.95 0.22L395.95 0.22Q394.06-0.19 392.11-1.27L392.11-1.27L392.11-1.27Q390.16-2.34 388.73-4L388.73-4L388.73-4Q387.31-5.66 386.42-8.42L386.42-8.42L386.42-8.42Q385.53-11.19 385.53-14.72ZM432.06-26.88L432.06-26.88L432.06-26.88Q428.41-26.88 423.81-24.47L423.81-24.47L423.81 0L418.69 0L418.69-47.22L423.81-47.22L423.81-28.53L423.81-28.53Q429.28-31.44 434.06-31.44L434.06-31.44L434.06-31.44Q436.13-31.44 437.77-30.91L437.77-30.91L437.77-30.91Q439.41-30.38 440.47-29.58L440.47-29.58L440.47-29.58Q441.53-28.78 442.30-27.52L442.30-27.52L442.30-27.52Q443.06-26.25 443.45-25.14L443.45-25.14L443.45-25.14Q443.84-24.03 444.05-22.50L444.05-22.50L444.05-22.50Q444.25-20.97 444.30-20L444.30-20L444.30-20Q444.34-19.03 444.34-17.72L444.34-17.72L444.34 0L439.09 0L439.09-18.66L439.09-18.66Q439.09-26.88 432.06-26.88ZM455.13-38.50L455.13-44.41L461.19-44.41L461.19-38.50L455.13-38.50ZM455.59 0L455.59-30.88L460.72-30.88L460.72 0L455.59 0ZM471.97 0L471.97-30.88L475.56-30.88L476.69-28.25L476.69-28.25Q482.66-31.50 487.56-31.50L487.56-31.50L487.56-31.50Q490.09-31.50 491.97-30.70L491.97-30.70L491.97-30.70Q493.84-29.91 494.88-28.70L494.88-28.70L494.88-28.70Q495.91-27.50 496.52-25.67L496.52-25.67L496.52-25.67Q497.13-23.84 497.30-22.19L497.30-22.19L497.30-22.19Q497.47-20.53 497.47-18.41L497.47-18.41L497.47 0L492.34 0L492.34-18.75L492.34-18.75Q492.34-26.88 485.34-26.88L485.34-26.88L485.34-26.88Q481.72-26.88 477.09-24.47L477.09-24.47L477.09 0L471.97 0ZM522-31.47L522-31.47L522-31.47Q524.25-31.47 526.05-30.92L526.05-30.92L526.05-30.92Q527.84-30.38 529.03-29.53L529.03-29.53L529.03-29.53Q530.22-28.69 531.08-27.33L531.08-27.33L531.08-27.33Q531.94-25.97 532.39-24.70L532.39-24.70L532.39-24.70Q532.84-23.44 533.09-21.66L533.09-21.66L533.09-21.66Q533.34-19.88 533.41-18.56L533.41-18.56L533.41-18.56Q533.47-17.25 533.47-15.47L533.47-15.47L533.47-13.03L512.25-13.03L512.25-13.03Q512.25-11.34 513.02-9.67L513.02-9.67L513.02-9.67Q513.78-8 515.17-6.61L515.17-6.61L515.17-6.61Q516.56-5.22 518.83-4.34L518.83-4.34L518.83-4.34Q521.09-3.47 523.84-3.47L523.84-3.47L523.84-3.47Q527.09-3.47 530.88-4.59L530.88-4.59L531.78-1.09L531.78-1.09Q526.75 0.63 521.91 0.63L521.91 0.63L521.91 0.63Q518.50 0.63 515.86-0.28L515.86-0.28L515.86-0.28Q513.22-1.19 511.61-2.64L511.61-2.64L511.61-2.64Q510-4.09 508.97-6.13L508.97-6.13L508.97-6.13Q507.94-8.16 507.55-10.17L507.55-10.17L507.55-10.17Q507.16-12.19 507.16-14.44L507.16-14.44L507.16-14.44Q507.16-17.91 508-20.78L508-20.78L508-20.78Q508.84-23.66 510.28-25.61L510.28-25.61L510.28-25.61Q511.72-27.56 513.64-28.91L513.64-28.91L513.64-28.91Q515.56-30.25 517.67-30.86L517.67-30.86L517.67-30.86Q519.78-31.47 522-31.47ZM520.91-27.03L520.91-27.03L520.91-27.03Q518.16-27.03 516.17-25.52L516.17-25.52L516.17-25.52Q514.19-24 513.28-21.75L513.28-21.75L513.28-21.75Q512.38-19.50 512.38-16.91L512.38-16.91L528.50-16.91L528.50-16.91Q528.50-27.03 520.91-27.03ZM546.75-30.88L547.72-28.56L547.72-28.56Q551.63-31.47 556.34-31.47L556.34-31.47L556.34-31.47Q559.59-31.47 562.25-30.25L562.25-30.25L560.69-26.16L560.69-26.16Q558.25-27.09 555.63-27.09L555.63-27.09L555.63-27.09Q551.72-27.09 548.28-24.94L548.28-24.94L548.28 0L543.16 0L543.16-30.88L546.75-30.88ZM577.03 1.53L564.13-30.88L569.75-30.88L579.63-4.69L588.81-30.88L594.13-30.88L576.31 16.59L570.84 16.59L577.03 1.53Z" fill="#444"></path></g></g><style>text {
  font-size: 64px;
  font-family: Arial Black;
  dominant-baseline: central;
  text-anchor: middle;
}</style></svg>